HIERARCHY
ROOT root
{
	OFFSET	0	13.1	24.9
	CHANNELS 6  Xposition Yposition Zposition Xrotation Yrotation Zrotation
	JOINT spine_1
	{
		OFFSET	0	9.99999	0
		CHANNELS 3  Xrotation Yrotation Zrotation
		JOINT spine_2
		{
			OFFSET	0	112	-10
			CHANNELS 3  Xrotation Yrotation Zrotation
			JOINT spine_3
			{
				OFFSET	0	206.5	19.3
				CHANNELS 3  Xrotation Yrotation Zrotation
				JOINT spine_4
				{
					OFFSET	0	110.4	14.6
					CHANNELS 3  Xrotation Yrotation Zrotation
					JOINT neck_1
					{
						OFFSET	0	71.8	-50.3
						CHANNELS 3  Xrotation Yrotation Zrotation
						JOINT neck_2
						{
							OFFSET	0	86.2	-25.8
							CHANNELS 3  Xrotation Yrotation Zrotation
							JOINT head_ee
							{
								OFFSET	0	179.8	-8.7
								CHANNELS 3  Xrotation Yrotation Zrotation
								End Site
								{
									OFFSET	1	0	0
								}
							}
						}
					}
					JOINT left_clavicle
					{
						OFFSET	-43.2	22.4	-70.8
						CHANNELS 3  Xrotation Yrotation Zrotation
						JOINT left_shoulder
						{
							OFFSET	-93.9	-5.79999	48.7
							CHANNELS 3  Xrotation Yrotation Zrotation
							JOINT left_elbow
							{
								OFFSET	-291.4	-30.8	15.2
								CHANNELS 3  Xrotation Yrotation Zrotation
								JOINT left_lowarm_twist
								{
									OFFSET	-110.7	-3.89999	13.6
									CHANNELS 3  Xrotation Yrotation Zrotation
									JOINT left_hand
									{
										OFFSET	-110.7	-3.89999	13.6
										CHANNELS 3  Xrotation Yrotation Zrotation
										JOINT left_ee
										{
											OFFSET	-80.8	-5.10001	12.1
											CHANNELS 3  Xrotation Yrotation Zrotation
											End Site
											{
												OFFSET	1	0	0
											}
										}
									}
								}
							}
						}
					}
					JOINT right_clavicle
					{
						OFFSET	43.2	22.4	-70.8
						CHANNELS 3  Xrotation Yrotation Zrotation
						JOINT right_shoulder
						{
							OFFSET	93.9	-5.79999	48.7
							CHANNELS 3  Xrotation Yrotation Zrotation
							JOINT right_elbow
							{
								OFFSET	291.4	-30.8	15.2
								CHANNELS 3  Xrotation Yrotation Zrotation
								JOINT right_lowarm_twist
								{
									OFFSET	110.7	-3.89999	13.6
									CHANNELS 3  Xrotation Yrotation Zrotation
									JOINT right_hand
									{
										OFFSET	110.7	-3.89999	13.6
										CHANNELS 3  Xrotation Yrotation Zrotation
										JOINT right_ee
										{
											OFFSET	80.8	-5.10001	12.1
											CHANNELS 3  Xrotation Yrotation Zrotation
											End Site
											{
												OFFSET	1	0	0
											}
										}
									}
								}
							}
						}
					}
				}
			}
		}
	}
	JOINT left_hip
	{
		OFFSET	-82.8	-127.5	0.300001
		CHANNELS 3  Xrotation Yrotation Zrotation
		JOINT left_knee
		{
			OFFSET	-28.2	-396.7	2.2
			CHANNELS 3  Xrotation Yrotation Zrotation
			JOINT left_ankle
			{
				OFFSET	-11.7	-411.3	35.4
				CHANNELS 3  Xrotation Yrotation Zrotation
				JOINT left_toes
				{
					OFFSET	0	-60	-88.6
					CHANNELS 3  Xrotation Yrotation Zrotation
					JOINT left_foot_ee
					{
						OFFSET	-22.5	-16.5	-42.2
						CHANNELS 3  Xrotation Yrotation Zrotation
						End Site
						{
							OFFSET	1	0	0
						}
					}
				}
			}
		}
	}
	JOINT right_hip
	{
		OFFSET	82.8	-127.5	0.300001
		CHANNELS 3  Xrotation Yrotation Zrotation
		JOINT right_knee
		{
			OFFSET	28.2	-396.7	2.2
			CHANNELS 3  Xrotation Yrotation Zrotation
			JOINT right_ankle
			{
				OFFSET	11.7	-411.3	35.4
				CHANNELS 3  Xrotation Yrotation Zrotation
				JOINT right_toes
				{
					OFFSET	0	-60	-88.6
					CHANNELS 3  Xrotation Yrotation Zrotation
					JOINT right_foot_ee
					{
						OFFSET	22.5	-16.5	-42.2
						CHANNELS 3  Xrotation Yrotation Zrotation
						End Site
						{
							OFFSET	1	0	0
						}
					}
				}
			}
		}
	}
}
MOTION
Frames: 15
Frame Time: 0.02
2547.26 718.181 -1087.15 -2.16846 53.3892 7.45349 -2.27503 0.335503 -0.0131112 -2.2751 0.335657 0.0082645 -2.27511 0.323044 0.0915227 -2.27496 0.333444 0.0393547 5.56343 13.6849 4.27576 6.00365 19.6513 5.44019 -0.0 0.0 -0.0 8.28241 9.10652 15.754 -27.293 -18.0424 52.5017 0.324787 -9.14018 0.0259611 8.06489 0.213558 -1.00722 0.801562 -2.36133 4.38756 -0.0 0.0 -0.0 12.6013 16.2174 -25.5338 -31.6185 49.6737 -28.7088 1.45763 35.8297 -0.471243 1.68552 -0.0563305 0.207899 -3.35941 5.01272 25.6097 0.0 0.0 0.0 14.5577 -34.1557 -18.8367 -0.0343581 0.00141329 0.00508316 6.82084 26.0441 -1.02984 -9.04655 0.0 0.0 -0.0 0.0 -0.0 -1.76772 -2.48084 0.0791734 -28.7983 -0.0882153 -4.3723 29.9629 8.12741 4.00698 8.34645 -0.0 -0.0 0.0 0.0 0.0 
2523.71 715.704 -1089.23 -2.23551 53.5064 7.54592 -2.19363 0.300433 -0.0503909 -2.19368 0.30303 -0.0311713 -2.19391 0.30132 0.0447826 -2.19378 0.304611 -0.00336769 6.31176 12.7999 4.15839 6.69572 18.0614 5.23746 -0.0 0.0 -0.0 8.38671 9.05482 15.9494 -26.0004 -17.22 52.9802 0.313507 -8.82783 0.0241997 8.44433 0.220093 -1.05525 0.756222 0.797509 5.38323 -0.0 0.0 -0.0 11.8258 15.4414 -23.784 -30.2079 49.5421 -31.6957 1.31115 33.0024 -0.388426 2.45108 -0.0798893 0.302847 -3.40915 4.88476 25.9187 0.0 0.0 0.0 15.7013 -36.581 -17.8837 -4.00321 0.144 0.59737 2.02226 25.3851 -0.308003 -7.86362 0.0 0.0 -0.0 0.0 -0.0 -2.31796 -0.470749 -0.0216275 -28.9934 -0.0813041 -4.40145 28.3834 6.16218 3.80203 9.25516 -0.0 -0.0 0.0 0.0 0.0 
2505.32 718.564 -1088.53 -1.15253 52.3244 7.6027 -2.45579 0.476051 -0.243468 -2.45589 0.490579 -0.212682 -2.45791 0.528335 -0.0822348 -2.45756 0.508717 -0.164646 5.92172 13.3765 4.6676 6.32584 18.6872 5.86555 -0.0 0.0 -0.0 8.5714 8.54195 16.3268 -25.7327 -19.0857 52.7089 0.318339 -8.9617 0.0249468 8.46036 0.220362 -1.05728 0.759447 0.0832941 5.11272 -0.0 0.0 -0.0 12.7878 15.7769 -25.9832 -32.6343 47.4581 -29.2868 1.06531 27.821 -0.263852 0.776459 -0.0267099 0.0955688 -3.38968 5.7582 26.2028 0.0 0.0 0.0 14.9664 -37.3422 -18.5737 -7.0179 0.224687 1.05293 3.61002 24.6735 -0.545668 -7.1127 0.0 0.0 -0.0 0.0 -0.0 -3.16774 -0.669925 -0.0302936 -28.417 -0.101436 -4.31528 27.0249 5.85815 3.64518 8.07389 -0.0 -0.0 0.0 0.0 0.0 
2460.74 721.712 -1096.7 2.11499 53.1632 5.50675 -2.73386 0.107031 -0.516672 -2.73372 0.139691 -0.508814 -2.73488 0.265576 -0.455934 -2.73512 0.190238 -0.492154 5.98128 13.241 4.85724 6.3686 18.2716 6.08035 -0.0 0.0 -0.0 8.49665 9.48545 16.121 -24.4335 -20.3801 53.7374 0.353238 -9.92555 0.0306732 8.33396 0.218225 -1.04127 0.746746 0.903031 5.36286 -0.0 0.0 -0.0 12.4349 15.2664 -25.1864 -32.7148 47.0139 -33.0068 0.787844 21.3193 -0.148293 -0.331362 0.0117931 -0.0406749 -3.46949 6.37982 27.109 0.0 0.0 0.0 14.6611 -37.9634 -15.6565 -13.8148 0.318037 2.09108 4.53686 23.5911 -0.680464 -5.06162 0.0 0.0 -0.0 0.0 -0.0 -2.01894 5.14496 -1.03166 -35.4685 0.203923 -5.35355 27.2318 0.0695017 3.60809 9.17179 -0.0 -0.0 0.0 0.0 0.0 
2421.19 721.043 -1101.96 4.83005 53.7809 3.05192 -2.96114 -0.162912 -0.838846 -2.96076 -0.109206 -0.847512 -2.9586 0.115221 -0.846715 -2.9596 -0.0199427 -0.854285 6.04245 13.027 4.41911 6.43064 18.2802 5.56211 -0.0 0.0 -0.0 8.6595 11.1827 16.2823 -23.6877 -20.9839 54.9339 0.418748 -11.7192 0.0429751 7.5108 0.203443 -0.937164 0.723515 -0.250495 4.73477 -0.0 0.0 -0.0 11.7229 14.8255 -23.5719 -32.0959 45.7829 -36.4221 0.547583 15.1768 -0.0729511 -0.911742 0.0330156 -0.111752 -3.53999 6.72422 27.8128 0.0 0.0 0.0 18.4547 -38.5692 -9.9389 -25.3589 0.193674 3.85508 7.67452 23.6609 -1.1415 -2.67935 0.0 0.0 -0.0 0.0 -0.0 -1.08951 11.5466 -1.83982 -42.0841 0.604649 -6.28754 27.1092 -6.79467 3.57135 10.5386 -0.0 -0.0 0.0 0.0 0.0 
2391.26 726.161 -1104.44 6.96252 54.0609 0.330126 -3.03263 -0.211496 -0.684382 -3.03238 -0.167519 -0.696452 -3.02994 0.020473 -0.716022 -3.03064 -0.0928634 -0.71027 6.14881 12.8275 4.5667 6.51749 17.7822 5.72447 -0.0 0.0 -0.0 8.48228 11.6344 15.9261 -22.9148 -21.4814 55.1934 0.44919 -12.545 0.0493732 6.76448 0.18875 -0.842961 0.669752 -0.648234 4.21036 -0.0 0.0 -0.0 11.0538 14.8908 -22.0547 -31.2108 45.6151 -39.5538 0.467453 13.038 -0.0534167 -1.1835 0.0432005 -0.14496 -3.5624 7.0476 28.1415 0.0 0.0 0.0 21.588 -38.5851 -5.11323 -33.9959 -0.12961 5.13989 13.1138 24.1368 -1.92167 -0.255967 0.0 0.0 -0.0 0.0 -0.0 0.261769 15.9708 -3.10936 -46.064 0.896907 -6.82541 24.9364 -16.0935 3.36868 11.1772 -0.0 -0.0 0.0 0.0 0.0 
2359.87 730.417 -1107.76 7.75411 53.9688 -0.338954 -3.31696 -0.342062 -0.646688 -3.31678 -0.300219 -0.667143 -3.31285 -0.111716 -0.722999 -3.31351 -0.224495 -0.696284 4.67843 11.7347 5.17824 4.94959 15.6949 6.47242 -0.0 0.0 -0.0 8.34713 12.8437 15.5839 -21.5547 -22.1009 55.4357 0.462204 -12.8965 0.0522388 6.85812 0.190661 -0.854771 0.713499 -1.40294 4.19226 -0.0 0.0 -0.0 10.7454 12.6782 -21.4314 -30.3601 44.9464 -41.1702 0.447234 12.4921 -0.0489491 -0.73087 0.0263243 -0.0896243 -3.78913 6.35305 29.5433 0.0 0.0 0.0 22.1736 -41.4743 -1.73639 -37.8552 -0.335984 5.69567 13.3214 25.8983 -1.96949 0.806977 -0.0 -0.0 -0.0 0.0 -0.0 1.68901 19.0514 -3.96692 -49.5078 1.17957 -7.2738 22.9148 -16.8996 3.13322 11.7237 -0.0 -0.0 0.0 0.0 0.0 
2332.62 736.312 -1111.26 8.11292 54.6344 -1.22559 -3.3408 -0.268614 -0.670358 -3.34058 -0.225414 -0.686091 -3.33744 -0.0342503 -0.721358 -3.33813 -0.147743 -0.706897 5.36767 12.7355 4.4204 5.72754 17.9348 5.59824 -0.0 0.0 -0.0 8.36751 12.0933 15.6836 -21.3406 -22.3446 56.0193 0.543366 -15.0653 0.071851 6.9309 0.192133 -0.863951 0.650056 -2.11048 3.47238 -0.0 0.0 -0.0 10.5932 14.436 -21.0377 -31.0807 44.1391 -43.3478 0.250791 7.08198 -0.0155191 -1.92388 0.0717471 -0.235187 -3.55282 7.73459 28.4013 0.0 0.0 0.0 23.9078 -39.016 1.19369 -42.4723 -0.6315 6.34087 13.1744 23.6623 -1.92552 1.30971 -0.0 -0.0 -0.0 0.0 -0.0 2.57393 21.7588 -6.41377 -50.9094 1.30229 -7.45137 24.2805 -20.152 3.33771 12.0114 -0.0 -0.0 0.0 0.0 0.0 
2313.24 742.11 -1116.82 9.79797 55.0682 -2.9679 -3.5314 -0.451831 -0.468027 -3.53138 -0.421134 -0.495829 -3.52748 -0.271679 -0.591092 -3.52778 -0.36162 -0.540769 4.9978 12.6536 4.04112 5.36072 18.2112 5.18354 -0.0 0.0 -0.0 8.50813 11.0688 16.0193 -20.4658 -22.8752 55.9552 0.529164 -14.6888 0.0682046 6.85067 0.19051 -0.853832 0.583655 -1.65716 3.21467 -0.0 0.0 -0.0 10.3249 13.9836 -20.4553 -31.1849 43.6966 -44.8212 0.262484 7.40859 -0.0169939 -1.85836 0.0691735 -0.227216 -3.53637 7.62207 28.2211 0.0 0.0 0.0 22.8606 -37.7087 1.94615 -44.6698 -0.790267 6.63928 14.7887 23.0895 -2.14307 1.63922 -0.0 -0.0 -0.0 0.0 -0.0 4.12219 23.505 -7.99528 -51.6496 1.36885 -7.54393 21.6142 -20.8845 3.0169 12.37 -0.0 -0.0 0.0 0.0 0.0 
2283.42 749.955 -1121.97 9.78185 52.8637 -2.79804 -3.37289 -0.386189 -0.581902 -3.37277 -0.348379 -0.605296 -3.36871 -0.173951 -0.676379 -3.36924 -0.278587 -0.640421 4.14293 12.8933 5.64753 4.4693 17.4188 7.08051 -0.0 0.0 -0.0 8.87875 9.54095 16.8199 -15.8531 -23.1632 53.1493 0.614409 -16.9283 0.0914318 7.88578 0.210363 -0.984565 0.588913 -2.57533 2.86763 -0.0 0.0 -0.0 9.70842 13.5577 -19.1047 -31.5497 43.4988 -45.8779 0.292892 8.25563 -0.0211378 -2.29151 0.0863553 -0.279852 -3.47891 7.3562 27.6545 0.0 0.0 0.0 19.8972 -37.7783 2.54318 -44.2483 -0.758922 6.5825 16.9445 22.1585 -2.42499 2.19735 -0.0 -0.0 -0.0 0.0 -0.0 6.63937 26.637 -8.55003 -50.3755 1.25503 -7.38408 23.971 -22.0902 3.32855 12.0918 -0.0 -0.0 0.0 0.0 0.0 
2266.52 750.34 -1127.86 11.0498 51.9402 -3.77986 -3.64179 -0.371279 -0.477818 -3.64173 -0.340122 -0.500475 -3.63848 -0.191303 -0.574073 -3.63884 -0.279565 -0.536657 3.41728 12.086 5.32159 3.69593 16.463 6.71607 -0.0 0.0 -0.0 9.08137 7.86849 17.3319 -14.0361 -23.9577 51.0923 0.639757 -17.5844 0.0989513 7.56737 0.204507 -0.944312 0.519899 -3.4501 2.03737 -0.0 0.0 -0.0 9.49209 14.449 -18.5923 -30.4403 42.9574 -48.2768 0.295735 8.33465 -0.0215479 -2.40367 0.0908687 -0.293459 -3.27529 7.64467 26.2532 0.0 0.0 0.0 17.7201 -33.4809 0.493939 -45.1873 -0.829319 6.70866 17.5204 18.4307 -2.46468 0.35291 -0.0 -0.0 -0.0 0.0 -0.0 8.81976 28.3071 -9.7639 -51.5492 1.35975 -7.53143 23.0778 -24.3195 3.25448 12.269 -0.0 -0.0 0.0 0.0 0.0 
2247.66 753.957 -1131.49 11.3239 50.8329 -4.22302 -3.57916 -0.088405 -0.354726 -3.57909 -0.0656539 -0.359632 -3.57857 0.0341837 -0.363974 -3.57875 -0.0237279 -0.364805 2.97188 12.371 6.51481 3.25121 16.0366 8.09027 -0.0 0.0 -0.0 9.29289 6.92887 17.8066 -11.4928 -24.0991 49.059 0.706676 -19.2935 0.12012 7.74005 0.207711 -0.966138 0.501882 -4.76688 1.36235 -0.0 0.0 -0.0 9.39507 13.5058 -18.4168 -30.3204 42.3111 -49.4286 0.296189 8.34725 -0.0216137 -2.00282 0.0748594 -0.244785 -3.20184 6.1171 24.9731 0.0 0.0 0.0 16.6667 -32.6991 1.04974 -46.314 -0.916507 6.85851 18.7045 14.7076 -2.59077 1.41782 -0.0 -0.0 -0.0 0.0 -0.0 11.4325 28.3452 -10.8702 -49.283 1.1603 -7.24505 21.8235 -23.1384 3.07554 12.0062 -0.0 -0.0 0.0 0.0 0.0 
2233.43 755.54 -1138.43 11.9319 51.9546 -5.24736 -3.69883 -0.286408 -0.318563 -3.69881 -0.265556 -0.336142 -3.69713 -0.163797 -0.39583 -3.69728 -0.224255 -0.364994 2.43005 11.8247 5.56675 2.68364 16.0147 7.03204 -0.0 0.0 -0.0 9.43987 6.06571 18.1551 -10.0006 -24.4002 48.0843 0.780226 -21.1315 0.145535 8.62759 0.223135 -1.07846 0.427025 -5.14124 0.699822 -0.0 0.0 -0.0 8.94416 13.4726 -17.4299 -30.0454 42.1187 -50.9201 0.354658 9.96465 -0.0309184 -2.35143 0.0887632 -0.287123 -3.02199 6.34378 23.7504 0.0 0.0 0.0 13.8367 -29.3806 0.464181 -42.2959 -0.619254 6.31666 20.8207 16.8479 -2.87369 0.937537 -0.0 -0.0 -0.0 0.0 -0.0 13.758 28.8132 -12.1436 -49.9707 1.21962 -7.33277 19.7874 -27.9864 2.89302 11.7179 -0.0 -0.0 0.0 0.0 0.0 
2210.59 759.084 -1142.67 12.1451 50.4679 -6.0356 -3.95777 -0.137814 -0.356411 -3.95771 -0.114855 -0.364458 -3.95684 -0.00935181 -0.382013 -3.95704 -0.0695658 -0.375742 1.5424 12.1013 7.71782 1.80757 14.8838 9.46269 -0.0 0.0 -0.0 9.58013 5.34294 18.4818 -8.68844 -25.0323 46.9419 0.83435 -22.4557 0.16563 7.7226 0.20739 -0.963932 0.439589 -6.40329 0.250408 -0.0 0.0 -0.0 9.07827 12.8776 -17.7461 -30.1617 41.6823 -51.1496 0.35133 9.87298 -0.030345 -2.1684 0.0814311 -0.264904 -2.98994 5.53743 23.1301 0.0 0.0 0.0 13.1917 -26.9626 0.580144 -44.65 -0.788782 6.63661 19.6653 10.5117 -2.69374 0.557046 -0.0 -0.0 -0.0 0.0 -0.0 16.1588 29.3761 -10.5973 -45.732 0.871097 -6.78131 20.7517 -23.705 2.94654 11.8513 -0.0 -0.0 0.0 0.0 0.0 
2194.6 761.058 -1144.94 10.3279 50.566 -5.5659 -3.69472 -0.239457 -0.359495 -3.69467 -0.216096 -0.374004 -3.69311 -0.105913 -0.418758 -3.69331 -0.170718 -0.396776 0.681508 12.2461 8.75451 0.966084 14.4882 10.6338 -0.0 0.0 -0.0 9.60429 4.69979 18.5754 -7.70737 -25.3425 45.6279 1.00888 -26.554 0.238067 7.72049 0.207351 -0.963666 0.437702 -7.21995 -0.108947 -0.0 0.0 -0.0 8.87769 12.4767 -17.3232 -30.826 41.3142 -51.4369 0.360742 10.1321 -0.03198 -2.31256 0.0871998 -0.282405 -2.88518 5.37723 22.288 0.0 0.0 0.0 11.8978 -20.2783 0.289937 -39.8525 -0.457411 5.97763 20.193 9.25213 -2.75653 0.299307 -0.0 -0.0 -0.0 0.0 -0.0 16.6152 29.0319 -10.5248 -41.7143 0.579414 -6.23657 21.4568 -24.6598 3.05313 12.5852 -0.0 -0.0 0.0 0.0 0.0 
